<svg width="200px" viewBox="0 0 200 200" xmlns="http://www.w3.org/2000/svg">
  <!-- Fond circulaire -->
  <circle cx="100" cy="100" r="95" fill="#f0f0f0" stroke="#2c3e50" stroke-width="5"/>

  <!-- Cartes multiples (5 cartes, plus grandes et plus écartées) -->
  <g transform="translate(55,45) scale(2.1) rotate(-15)">
    <!-- Carte 5 (arrière) -->
    <g transform="rotate(-5)">
      <rect x="-15" y="0" width="35" height="50" rx="3" fill="#ffffff" stroke="#2c3e50" stroke-width="2"/>
      <rect x="-10" y="5" width="25" height="40" rx="2" fill="#9b59b6"/>
    </g>
    <!-- Carte 4 -->
    <g transform="rotate(5)">
      <rect x="-10" y="0" width="35" height="50" rx="3" fill="#ffffff" stroke="#2c3e50" stroke-width="2"/>
      <rect x="-5" y="5" width="25" height="40" rx="2" fill="#f1c40f"/>
    </g>
    <!-- Carte 3 -->
    <g transform="rotate(15)">
      <rect x="-5" y="0" width="35" height="50" rx="3" fill="#ffffff" stroke="#2c3e50" stroke-width="2"/>
      <rect x="0" y="5" width="25" height="40" rx="2" fill="#3498db"/>
    </g>
    <!-- Carte 2 -->
    <g transform="rotate(35) translate(10, -5)">
      <rect x="0" y="0" width="35" height="50" rx="3" fill="#ffffff" stroke="#2c3e50" stroke-width="2"/>
      <rect x="5" y="5" width="25" height="40" rx="2" fill="#2ecc71"/>
    </g>
    <!-- Carte 1 (devant) -->
    <g transform="rotate(55) translate(20, -20)">
      <rect x="5" y="0" width="35" height="50" rx="3" fill="#ffffff" stroke="#2c3e50" stroke-width="2"/>
      <rect x="10" y="5" width="25" height="40" rx="2" fill="#e74c3c"/>
    </g>
  </g>

</svg>
